<svg width="19" height="20" viewBox="0 0 19 20" version="1.1" xmlns="http://www.w3.org/2000/svg" xmlns:xlink="http://www.w3.org/1999/xlink" xmlns:figma="http://www.figma.com/figma/ns">
<title>Google Play</title>
<desc>Created using Figma</desc>
<g id="Canvas" transform="translate(-2982 156)" figma:type="canvas">
<g id="Google Play" figma:type="vector-operation">
<use xlink:href="#path0_fill" transform="translate(2982 -156)" fill="#FFFFFF"/>
</g>
</g>
<defs>
<path id="path0_fill" fill-rule="evenodd" d="M 2.23657 0.284403L 13.5457 6.48202L 10.6938 9.14535L 0.966797 0.0400178C 1.3418 -0.05419 1.78564 0.0142762 2.23657 0.284403ZM 0 1.50018C 0 1.29348 0.0332031 1.11251 0.081543 0.944742L 9.76587 10.0106L 0.079834 19.0512C 0.0332031 18.8853 0 18.7062 0 18.5026L 0 1.50018ZM 17.7153 8.76713L 14.6968 7.11282L 11.605 9.99795L 14.7542 12.9472L 17.6909 11.3583C 19.1248 10.5534 18.6018 9.25784 17.7153 8.76713ZM 2.23584 19.7171C 1.77344 19.9942 1.31885 20.057 0.937988 19.9521L 10.6758 10.8631L 13.5793 13.5811L 2.23584 19.7171Z"/>
</defs>
</svg>
