<svg width="16" height="20" viewBox="0 0 16 20" version="1.1" xmlns="http://www.w3.org/2000/svg" xmlns:xlink="http://www.w3.org/1999/xlink" xmlns:figma="http://www.figma.com/figma/ns">
<title>iTunes</title>
<desc>Created using Figma</desc>
<g id="Canvas" transform="translate(-2863 156)" figma:type="canvas">
<g id="iTunes" figma:type="vector">
<use xlink:href="#path0_fill" transform="translate(2863 -156)" fill="#FFFFFF"/>
</g>
</g>
<defs>
<path id="path0_fill" d="M 15.9907 15.3592C 16.1191 17.0605 14.8423 18.6094 13.1365 18.8218C 11.4335 19.0334 9.94327 17.8263 9.81572 16.1254C 9.6855 14.4264 10.9668 12.8753 12.6699 12.6646C 13.2094 12.5984 13.7245 12.6731 14.1854 12.8593L 14.1854 4.50613L 6.18557 5.9941L 6.18557 16.4294L 6.17001 16.4294C 6.17357 16.4588 6.18113 16.4859 6.18113 16.5152C 6.31046 18.2165 5.0327 19.7636 3.32963 19.976C 1.623 20.1871 0.138583 18.9801 0.00925209 17.281C -0.121856 15.5797 1.1559 14.0295 2.86075 13.8202C 3.39985 13.7517 3.91539 13.8286 4.37627 14.017L 4.37627 1.9884L 4.37627 1.98618L 15.9818 0.00399992L 15.9929 0L 15.9929 0.00177774L 15.9974 0L 15.9929 0.0528878L 15.9929 15.2748L 15.9774 15.2748C 15.9831 15.3046 15.9885 15.3295 15.9907 15.3592Z"/>
</defs>
</svg>
