<svg width="219" height="56" viewBox="0 0 219 56" version="1.1" xmlns="http://www.w3.org/2000/svg" xmlns:xlink="http://www.w3.org/1999/xlink" xmlns:figma="http://www.figma.com/figma/ns">
<title>Group 22</title>
<desc>Created using Figma</desc>
<g id="Canvas" transform="translate(-1882 -8277)" figma:type="canvas">
<g id="Group 22" figma:type="frame">
<g id="Page 1" figma:type="vector">
<use xlink:href="#path0_fill" transform="translate(1882 8277)" fill="#FFFFFF"/>
</g>
<g id="Shipyard" figma:type="text">
<use xlink:href="#path1_fill" transform="translate(1989 8289)" fill="#FFFFFF"/>
</g>
</g>
</g>
<defs>
<path id="path0_fill" d="M 30.9361 16.4018L 29.762 15.7233L 38.8316 0L 50.2498 19.7954L 67 48.8334L 0 48.8334L 16.7502 19.7954L 28.1684 8.92845e-06L 60.471 56L 6.52966 56L 22.0821 29.0381L 33.4996 9.24264L 44.9186 29.0381L 56.3368 48.8334L 11.8372 48.8334L 11.8372 47.4765L 55.1628 47.4765L 54.5758 48.4942L 43.7445 29.7165L 32.9126 10.9388L 34.0867 10.9388L 23.2561 29.7165L 8.87778 54.6431L 58.1229 54.6431L 28.1684 2.71385L 17.9242 20.4739L 2.34813 47.4765L 64.6519 47.4765L 49.0758 20.4739L 38.8316 2.71386L 30.9361 16.4018Z"/>
<path id="path1_fill" d="M 10.488 9.744C 10.12 9.232 9.648 8.824 9.072 8.52C 8.496 8.2 7.8 8.04 6.984 8.04C 6.568 8.04 6.144 8.104 5.712 8.232C 5.28 8.36 4.888 8.56 4.536 8.832C 4.184 9.088 3.896 9.416 3.672 9.816C 3.464 10.216 3.36 10.688 3.36 11.232C 3.36 11.776 3.464 12.224 3.672 12.576C 3.88 12.928 4.152 13.232 4.488 13.488C 4.84 13.728 5.232 13.928 5.664 14.088C 6.112 14.248 6.576 14.408 7.056 14.568C 7.648 14.76 8.24 14.968 8.832 15.192C 9.44 15.416 9.984 15.712 10.464 16.08C 10.944 16.432 11.336 16.888 11.64 17.448C 11.944 17.992 12.096 18.688 12.096 19.536C 12.096 20.384 11.928 21.12 11.592 21.744C 11.272 22.352 10.848 22.856 10.32 23.256C 9.808 23.656 9.216 23.952 8.544 24.144C 7.888 24.336 7.224 24.432 6.552 24.432C 6.04 24.432 5.528 24.376 5.016 24.264C 4.504 24.168 4.016 24.016 3.552 23.808C 3.088 23.6 2.656 23.336 2.256 23.016C 1.856 22.696 1.504 22.328 1.2 21.912L 2.688 20.808C 3.056 21.416 3.568 21.928 4.224 22.344C 4.896 22.744 5.68 22.944 6.576 22.944C 7.008 22.944 7.448 22.88 7.896 22.752C 8.344 22.608 8.744 22.4 9.096 22.128C 9.464 21.84 9.76 21.496 9.984 21.096C 10.224 20.68 10.344 20.2 10.344 19.656C 10.344 19.064 10.224 18.576 9.984 18.192C 9.76 17.792 9.456 17.464 9.072 17.208C 8.688 16.936 8.248 16.712 7.752 16.536C 7.256 16.36 6.736 16.184 6.192 16.008C 5.632 15.832 5.08 15.632 4.536 15.408C 3.992 15.184 3.504 14.896 3.072 14.544C 2.64 14.176 2.288 13.728 2.016 13.2C 1.76 12.672 1.632 12.024 1.632 11.256C 1.632 10.44 1.792 9.736 2.112 9.144C 2.448 8.552 2.88 8.064 3.408 7.68C 3.936 7.296 4.52 7.016 5.16 6.84C 5.8 6.664 6.432 6.576 7.056 6.576C 8.208 6.576 9.192 6.784 10.008 7.2C 10.824 7.6 11.44 8.08 11.856 8.64L 10.488 9.744ZM 15.8029 7.008L 17.5309 7.008L 17.5309 14.376L 26.7949 14.376L 26.7949 7.008L 28.5229 7.008L 28.5229 24L 26.7949 24L 26.7949 15.96L 17.5309 15.96L 17.5309 24L 15.8029 24L 15.8029 7.008ZM 34.7574 24L 33.0294 24L 33.0294 7.008L 34.7574 7.008L 34.7574 24ZM 39.2638 7.008L 44.0638 7.008C 44.9278 7.008 45.7118 7.104 46.4158 7.296C 47.1198 7.472 47.7198 7.752 48.2158 8.136C 48.7278 8.504 49.1198 8.976 49.3918 9.552C 49.6638 10.112 49.7998 10.776 49.7998 11.544C 49.7998 12.312 49.6558 12.984 49.3678 13.56C 49.0958 14.12 48.7038 14.592 48.1918 14.976C 47.6958 15.344 47.0878 15.624 46.3678 15.816C 45.6638 16.008 44.8798 16.104 44.0158 16.104L 40.9918 16.104L 40.9918 24L 39.2638 24L 39.2638 7.008ZM 40.9918 14.64L 43.9198 14.64C 45.2798 14.64 46.3118 14.376 47.0158 13.848C 47.7198 13.32 48.0718 12.552 48.0718 11.544C 48.0718 10.488 47.7038 9.72 46.9678 9.24C 46.2478 8.744 45.2318 8.496 43.9198 8.496L 40.9918 8.496L 40.9918 14.64ZM 58.5958 24L 56.8678 24L 56.8678 16.68L 50.5078 7.008L 52.6678 7.008L 57.7798 15.24L 62.9398 7.008L 64.9558 7.008L 58.5958 16.68L 58.5958 24ZM 65.6516 24L 63.7556 24L 71.0996 7.008L 72.7796 7.008L 80.0756 24L 78.1556 24L 76.2836 19.536L 67.4996 19.536L 65.6516 24ZM 68.1476 17.952L 75.6356 17.952L 71.8916 8.928L 68.1476 17.952ZM 84.3043 24L 82.5763 24L 82.5763 7.008L 87.5683 7.008C 88.4003 7.008 89.1683 7.088 89.8723 7.248C 90.5923 7.408 91.2083 7.672 91.7203 8.04C 92.2483 8.392 92.6563 8.856 92.9443 9.432C 93.2323 10.008 93.3763 10.712 93.3763 11.544C 93.3763 12.168 93.2643 12.736 93.0403 13.248C 92.8163 13.76 92.5123 14.208 92.1283 14.592C 91.7443 14.96 91.2883 15.256 90.7603 15.48C 90.2323 15.704 89.6563 15.848 89.0323 15.912L 94.0003 24L 91.8883 24L 87.1843 16.056L 84.3043 16.056L 84.3043 24ZM 84.3043 14.568L 87.3043 14.568C 88.6963 14.568 89.7683 14.32 90.5203 13.824C 91.2723 13.312 91.6483 12.552 91.6483 11.544C 91.6483 10.984 91.5443 10.512 91.3363 10.128C 91.1283 9.744 90.8403 9.432 90.4723 9.192C 90.1043 8.952 89.6563 8.776 89.1283 8.664C 88.6003 8.552 88.0163 8.496 87.3763 8.496L 84.3043 8.496L 84.3043 14.568ZM 96.9435 7.008L 102.583 7.008C 103.639 7.008 104.695 7.184 105.751 7.536C 106.824 7.888 107.784 8.424 108.631 9.144C 109.495 9.848 110.192 10.736 110.719 11.808C 111.247 12.864 111.511 14.096 111.511 15.504C 111.511 16.928 111.247 18.168 110.719 19.224C 110.192 20.28 109.495 21.168 108.631 21.888C 107.784 22.592 106.824 23.12 105.751 23.472C 104.695 23.824 103.639 24 102.583 24L 96.9435 24L 96.9435 7.008ZM 98.6715 22.464L 102.103 22.464C 103.383 22.464 104.496 22.264 105.44 21.864C 106.4 21.464 107.192 20.944 107.815 20.304C 108.44 19.648 108.903 18.904 109.208 18.072C 109.528 17.24 109.688 16.384 109.688 15.504C 109.688 14.624 109.528 13.768 109.208 12.936C 108.903 12.104 108.44 11.368 107.815 10.728C 107.192 10.072 106.4 9.544 105.44 9.144C 104.496 8.744 103.383 8.544 102.103 8.544L 98.6715 8.544L 98.6715 22.464Z"/>
</defs>
</svg>
